<mxfile host="Electron" agent="Mozilla/5.0 (Windows NT 10.0; Win64; x64) AppleWebKit/537.36 (KHTML, like Gecko) draw.io/25.0.1 Chrome/128.0.6613.186 Electron/32.2.6 Safari/537.36" version="25.0.1">
  <diagram name="Page-1" id="929967ad-93f9-6ef4-fab6-5d389245f69c">
    <mxGraphModel dx="2510" dy="1863" grid="1" gridSize="10" guides="1" tooltips="1" connect="1" arrows="1" fold="1" page="1" pageScale="1.5" pageWidth="827" pageHeight="1169" background="none" math="0" shadow="0">
      <root>
        <mxCell id="0" style=";html=1;" />
        <mxCell id="1" style=";html=1;" parent="0" />
        <mxCell id="1672d66443f91eb5-1" value="&lt;p style=&quot;margin: 0px ; margin-top: 4px ; margin-left: 10px ; text-align: left&quot;&gt;&lt;b&gt;System&lt;/b&gt;&lt;/p&gt;" style="html=1;strokeWidth=1;shape=mxgraph.sysml.package;html=1;overflow=fill;whiteSpace=wrap;fillColor=none;gradientColor=none;fontSize=12;align=center;labelX=60.44;" parent="1" vertex="1">
          <mxGeometry x="127" y="40" width="423" height="405" as="geometry" />
        </mxCell>
        <mxCell id="a4vhTmUTnDll6e5OlXPA-6" style="rounded=0;orthogonalLoop=1;jettySize=auto;html=1;entryX=0;entryY=0.5;entryDx=0;entryDy=0;endArrow=none;endFill=0;" edge="1" parent="1" target="a4vhTmUTnDll6e5OlXPA-3">
          <mxGeometry relative="1" as="geometry">
            <mxPoint x="80" y="165" as="sourcePoint" />
          </mxGeometry>
        </mxCell>
        <mxCell id="a4vhTmUTnDll6e5OlXPA-1" value="Mitarbeiter" style="shape=umlActor;verticalLabelPosition=bottom;verticalAlign=top;html=1;outlineConnect=0;" vertex="1" parent="1">
          <mxGeometry x="40" y="135" width="30" height="60" as="geometry" />
        </mxCell>
        <mxCell id="a4vhTmUTnDll6e5OlXPA-19" style="edgeStyle=orthogonalEdgeStyle;rounded=0;orthogonalLoop=1;jettySize=auto;html=1;" edge="1" parent="1">
          <mxGeometry relative="1" as="geometry">
            <mxPoint x="55" y="285" as="sourcePoint" />
            <mxPoint x="55" y="225" as="targetPoint" />
          </mxGeometry>
        </mxCell>
        <mxCell id="a4vhTmUTnDll6e5OlXPA-2" value="Administrator" style="shape=umlActor;verticalLabelPosition=bottom;verticalAlign=top;html=1;outlineConnect=0;" vertex="1" parent="1">
          <mxGeometry x="40" y="295" width="30" height="60" as="geometry" />
        </mxCell>
        <mxCell id="a4vhTmUTnDll6e5OlXPA-12" style="rounded=0;orthogonalLoop=1;jettySize=auto;html=1;exitX=1;exitY=0.5;exitDx=0;exitDy=0;entryX=0;entryY=0;entryDx=0;entryDy=0;endArrow=open;endFill=0;dashed=1;dashPattern=12 12;" edge="1" parent="1" source="a4vhTmUTnDll6e5OlXPA-3" target="a4vhTmUTnDll6e5OlXPA-11">
          <mxGeometry relative="1" as="geometry" />
        </mxCell>
        <mxCell id="a4vhTmUTnDll6e5OlXPA-13" value="&amp;lt;&amp;lt;include&amp;gt;&amp;gt;" style="edgeLabel;html=1;align=center;verticalAlign=middle;resizable=0;points=[];" vertex="1" connectable="0" parent="a4vhTmUTnDll6e5OlXPA-12">
          <mxGeometry x="0.0743" y="-1" relative="1" as="geometry">
            <mxPoint as="offset" />
          </mxGeometry>
        </mxCell>
        <mxCell id="a4vhTmUTnDll6e5OlXPA-3" value="Tür öffnen" style="ellipse;whiteSpace=wrap;html=1;" vertex="1" parent="1">
          <mxGeometry x="190" y="115" width="90" height="50" as="geometry" />
        </mxCell>
        <mxCell id="a4vhTmUTnDll6e5OlXPA-4" value="Tür&lt;div&gt;schließen&lt;/div&gt;" style="ellipse;whiteSpace=wrap;html=1;" vertex="1" parent="1">
          <mxGeometry x="190" y="215" width="90" height="50" as="geometry" />
        </mxCell>
        <mxCell id="a4vhTmUTnDll6e5OlXPA-5" value="Türschloss programmieren" style="ellipse;whiteSpace=wrap;html=1;" vertex="1" parent="1">
          <mxGeometry x="190" y="305" width="100" height="50" as="geometry" />
        </mxCell>
        <mxCell id="a4vhTmUTnDll6e5OlXPA-7" style="rounded=0;orthogonalLoop=1;jettySize=auto;html=1;entryX=0;entryY=0.5;entryDx=0;entryDy=0;endArrow=none;endFill=0;" edge="1" parent="1" target="a4vhTmUTnDll6e5OlXPA-4">
          <mxGeometry relative="1" as="geometry">
            <mxPoint x="80" y="165" as="sourcePoint" />
            <mxPoint x="200" y="150" as="targetPoint" />
          </mxGeometry>
        </mxCell>
        <mxCell id="a4vhTmUTnDll6e5OlXPA-10" style="rounded=0;orthogonalLoop=1;jettySize=auto;html=1;exitX=0;exitY=0.5;exitDx=0;exitDy=0;endArrow=none;endFill=0;" edge="1" parent="1" source="a4vhTmUTnDll6e5OlXPA-5">
          <mxGeometry relative="1" as="geometry">
            <mxPoint x="80" y="325" as="targetPoint" />
            <mxPoint x="200" y="250" as="sourcePoint" />
          </mxGeometry>
        </mxCell>
        <mxCell id="a4vhTmUTnDll6e5OlXPA-11" value="Berechtigung&lt;div&gt;überprüfen&lt;/div&gt;" style="ellipse;whiteSpace=wrap;html=1;" vertex="1" parent="1">
          <mxGeometry x="390" y="200" width="120" height="80" as="geometry" />
        </mxCell>
        <mxCell id="a4vhTmUTnDll6e5OlXPA-14" style="rounded=0;orthogonalLoop=1;jettySize=auto;html=1;exitX=1;exitY=0.5;exitDx=0;exitDy=0;entryX=0;entryY=0.5;entryDx=0;entryDy=0;endArrow=open;endFill=0;dashed=1;dashPattern=12 12;" edge="1" parent="1" source="a4vhTmUTnDll6e5OlXPA-4" target="a4vhTmUTnDll6e5OlXPA-11">
          <mxGeometry relative="1" as="geometry">
            <mxPoint x="290" y="150" as="sourcePoint" />
            <mxPoint x="358" y="222" as="targetPoint" />
          </mxGeometry>
        </mxCell>
        <mxCell id="a4vhTmUTnDll6e5OlXPA-15" value="&amp;lt;&amp;lt;include&amp;gt;&amp;gt;" style="edgeLabel;html=1;align=center;verticalAlign=middle;resizable=0;points=[];" vertex="1" connectable="0" parent="a4vhTmUTnDll6e5OlXPA-14">
          <mxGeometry x="0.0743" y="-1" relative="1" as="geometry">
            <mxPoint as="offset" />
          </mxGeometry>
        </mxCell>
        <mxCell id="a4vhTmUTnDll6e5OlXPA-16" style="rounded=0;orthogonalLoop=1;jettySize=auto;html=1;exitX=1;exitY=0.5;exitDx=0;exitDy=0;entryX=0.116;entryY=0.828;entryDx=0;entryDy=0;endArrow=open;endFill=0;dashed=1;dashPattern=12 12;entryPerimeter=0;" edge="1" parent="1" source="a4vhTmUTnDll6e5OlXPA-5" target="a4vhTmUTnDll6e5OlXPA-11">
          <mxGeometry relative="1" as="geometry">
            <mxPoint x="300" y="160" as="sourcePoint" />
            <mxPoint x="368" y="232" as="targetPoint" />
          </mxGeometry>
        </mxCell>
        <mxCell id="a4vhTmUTnDll6e5OlXPA-17" value="&amp;lt;&amp;lt;include&amp;gt;&amp;gt;" style="edgeLabel;html=1;align=center;verticalAlign=middle;resizable=0;points=[];" vertex="1" connectable="0" parent="a4vhTmUTnDll6e5OlXPA-16">
          <mxGeometry x="0.0743" y="-1" relative="1" as="geometry">
            <mxPoint as="offset" />
          </mxGeometry>
        </mxCell>
      </root>
    </mxGraphModel>
  </diagram>
</mxfile>
